HIERARCHY
ROOT Hips
{
	OFFSET 0.00000 0.00000 0.00000
	CHANNELS 6 Xposition Yposition Zposition Yrotation Zrotation Xrotation 
	JOINT Lumbar
	{
		OFFSET 0 0 0
		CHANNELS 3 Zrotation Xrotation Yrotation
		JOINT Neck
		{
			OFFSET 0.00 0.2701 0.00
			CHANNELS 3 Zrotation Xrotation Yrotation
			End Site
			{
				OFFSET 0.00 0.1379 0.00
			}
		}
		JOINT RightShoulder
		{
			OFFSET 0.0119 0.2289 0.1181
			CHANNELS 3 Zrotation Xrotation Yrotation
			JOINT RightElbow
			{
				OFFSET 0.00 -0.1475 0.00
				CHANNELS 2 Zrotation Yrotation
				JOINT RightWrist
				{
					OFFSET 0.00 -0.1605 0.00
					CHANNELS 2 Zrotation Xrotation
					End Site
					{
						OFFSET 0.0040 -0.1068 0.0006
					}
				}
			}
		}
		JOINT LeftShoulder
		{
			OFFSET 0.0119 0.2289 -0.1181
			CHANNELS 3 Zrotation Xrotation Yrotation
			JOINT LeftElbow
			{
				OFFSET 0.00 -0.1475 0.00
				CHANNELS 2 Zrotation Yrotation
				JOINT LeftWrist
				{
					OFFSET 0.00 -0.1605 0.00
					CHANNELS 2 Zrotation Xrotation
					End Site
					{
						OFFSET 0.0040 -0.1068 -0.0006
					}
				}
			}
		}
	}
	JOINT RightHip
	{
		OFFSET 0.0316 -0.0424 0.0458
		CHANNELS 3 Zrotation Xrotation Yrotation
		JOINT RightKnee
		{
			OFFSET 0.00 -0.2438 0.00
			CHANNELS 1 Zrotation
			JOINT RightAnkle
			{
				OFFSET 0.00 -0.2449 0.00
				CHANNELS 3 Zrotation Xrotation Yrotation
				End Site
				{
					OFFSET 0.1237 -0.0542 0.0051
				}
			}
		}
	}
	JOINT LeftHip
	{
		OFFSET 0.0316 -0.0424 -0.0458
		CHANNELS 3 Zrotation Xrotation Yrotation
		JOINT LeftKnee
		{
			OFFSET 0.00 -0.2438 0.00
			CHANNELS 1 Zrotation
			JOINT LeftAnkle
			{
				OFFSET 0.00 -0.2449 0.00
				CHANNELS 3 Zrotation Xrotation Yrotation
				End Site
				{
					OFFSET 0.1237 -0.0542 -0.0051
				}
			}
		}
	}
}
MOTION
Frames: 16
Frame Time: 0.02
-0.17968 -0.62804 0.14687 25.07896 63.26534 -0.51913 19.16019 6.67279 0.12386 -60.9085 -3.38041 -2.11994 -62.56693 16.21465 -76.05352 111.12815 124.49529 82.84944 -21.88187 -62.32632 -15.75439 67.36533 91.70751 -96.61488 33.65251 1.29075 43.40957 -9.73214 -16.3631 -0.49166 -41.88712 -6.91208 -11.53622 41.7668 4.08506 22.33487 -0.48961 -29.18569 -13.48661 -4.24916
-0.17954 -0.62809 0.14711 24.71423 62.63949 -0.0907 19.75913 6.63833 0.31328 -60.96776 -3.61749 -2.11994 -62.56693 16.21465 -75.94519 111.15166 124.46356 82.84944 -21.88187 -62.31493 -15.65151 67.34539 91.6527 -96.72553 33.66246 1.28215 44.13006 -9.59309 -16.03031 -0.49163 -41.33063 -7.44263 -11.49193 42.40483 4.10874 22.28403 -0.48996 -29.26231 -13.59029 -4.34246
-0.17937 -0.62816 0.14736 24.3156 61.83397 0.36428 20.52974 6.60196 0.51425 -61.01201 -3.83985 -2.11994 -62.56693 16.21465 -75.81973 111.17732 124.42797 82.84944 -21.88188 -62.31181 -15.54599 67.32542 91.60879 -96.84543 33.69399 1.26441 45.04688 -9.43154 -15.67036 -0.49194 -40.65498 -8.07509 -11.45757 43.23131 4.1547 22.27807 -0.48997 -29.28777 -13.67842 -4.43758
-0.17921 -0.62821 0.1476 23.93956 61.15093 0.79929 21.18252 6.56716 0.70601 -61.0609 -4.06559 -2.11994 -62.56693 16.21465 -75.70674 111.20212 124.3933 82.84944 -21.88189 -62.30097 -15.44398 67.31224 91.56016 -96.95413 33.715 1.25204 45.82551 -9.2837 -15.32518 -0.49177 -40.03771 -8.66608 -11.4247 43.92878 4.1906 22.26389 -0.49013 -29.34029 -13.78412 -4.53307
-0.17906 -0.62829 0.14788 23.52803 60.29406 1.27368 22.00476 6.52858 0.91701 -61.11991 -4.30575 -2.11994 -62.56693 16.21465 -75.57321 111.22519 124.36157 82.84944 -21.8819 -62.30543 -15.33177 67.27247 91.50952 -97.09183 33.73943 1.23527 46.8123 -9.11999 -14.96522 -0.49295 -39.39865 -9.24265 -11.36713 44.81186 4.22683 22.19021 -0.49033 -29.38027 -13.84426 -4.62213
-0.17889 -0.62832 0.14808 23.18537 59.75409 1.66899 22.51742 6.49799 1.08932 -61.15403 -4.51211 -2.11994 -62.56693 16.21465 -75.4791 111.25324 124.32315 82.84944 -21.88191 -62.28141 -15.24003 67.28583 91.46584 -97.17219 33.76211 1.22501 47.41546 -8.98491 -14.6323 -0.49146 -38.78046 -9.86679 -11.36185 45.35571 4.26715 22.2515 -0.49035 -29.43225 -13.99263 -4.72438
-0.17867 -0.62822 0.14811 23.02805 60.17071 1.85287 22.09477 6.48664 1.15717 -61.12187 -4.62994 -2.11994 -62.56693 16.21465 -75.49272 111.28951 124.26566 82.84944 -21.88192 -62.16556 -15.20954 67.46465 91.4412 -97.08345 33.76924 1.23748 46.86381 -8.92825 -14.36811 -0.4819 -38.22135 -10.65194 -11.51481 44.87289 4.31713 22.70855 -0.48985 -29.53737 -14.43124 -4.87711
-0.17842 -0.62807 0.14807 22.94378 60.90575 1.95347 21.36144 6.48404 1.18463 -61.06534 -4.71396 -2.11994 -62.56693 16.21465 -75.54741 111.33164 124.2019 82.84944 -21.88192 -62.02265 -15.19923 67.69373 91.42294 -96.9381 33.77448 1.25637 45.92779 -8.90222 -14.13438 -0.46975 -37.69284 -11.47179 -11.71748 44.04981 4.36983 23.29525 -0.48917 -29.65455 -14.95214 -5.04079
-0.1782 -0.62794 0.14805 22.83579 61.4716 2.08216 20.79445 6.47975 1.22663 -61.02056 -4.81268 -2.11994 -62.56693 16.21465 -75.58717 111.37463 124.14206 82.84944 -21.88193 -61.89987 -15.17688 67.88709 91.40021 -96.82441 33.78433 1.2705 45.19741 -8.86652 -13.89613 -0.45919 -37.16857 -12.23895 -11.88643 43.40982 4.4186 23.80169 -0.4886 -29.76084 -15.40773 -5.19028
-0.17794 -0.62779 0.14806 22.68832 62.13609 2.25132 20.12602 6.46593 1.28439 -60.97218 -4.91387 -2.11994 -62.56693 16.21465 -75.61156 111.40328 124.07756 82.84944 -21.88194 -61.74541 -15.16587 68.13352 91.38425 -96.68663 33.78017 1.29173 44.34135 -8.81287 -13.61967 -0.44692 -36.56311 -13.16275 -12.10131 42.65476 4.47905 24.39903 -0.48787 -29.88812 -15.97956 -5.37848
-0.17773 -0.62768 0.14801 22.63862 62.67106 2.31825 19.59453 6.47381 1.30056 -60.92603 -5.00187 -2.11994 -62.56693 16.21465 -75.67665 111.46255 124.02136 82.84944 -21.88195 -61.64904 -15.1369 68.283 91.35585 -96.58469 33.80315 1.30026 43.65561 -8.80319 -13.4277 -0.43759 -36.13611 -13.77071 -12.23392 42.05814 4.51611 24.83796 -0.48745 -29.97534 -16.33025 -5.48889
-0.17766 -0.62768 0.14785 22.86134 62.79079 2.10371 19.50006 6.54154 1.20274 -60.88897 -5.06367 -2.11994 -62.56693 16.21465 -75.85514 111.61038 123.98947 82.84944 -21.88196 -61.73189 -15.04638 68.13818 91.28938 -96.60233 33.91308 1.26827 43.51054 -8.91637 -13.48522 -0.43703 -36.19007 -13.46612 -12.11188 41.96176 4.48273 24.80278 -0.48795 -29.94805 -16.04079 -5.3801
-0.17763 -0.62772 0.14764 23.17652 62.76753 1.79248 19.55528 6.63029 1.06588 -60.85546 -5.11322 -2.11994 -62.56693 16.21465 -76.07115 111.78783 123.96628 82.84944 -21.88197 -61.87213 -14.93838 67.89662 91.21061 -96.65681 34.0484 1.22396 43.55218 -9.07131 -13.62271 -0.43952 -36.42361 -12.84711 -11.90771 42.0381 4.4265 24.60499 -0.48877 -29.88049 -15.52844 -5.19326
-0.17759 -0.62774 0.14745 23.43594 62.7958 1.53844 19.55376 6.70825 0.95295 -60.82262 -5.16697 -2.11994 -62.56693 16.21465 -76.26283 111.94805 123.93907 82.84944 -21.88198 -61.97769 -14.84303 67.70887 91.13876 -96.68982 34.16403 1.18796 43.52464 -9.20127 -13.70789 -0.44062 -36.57887 -12.39352 -11.75168 42.04954 4.38413 24.484 -0.48942 -29.83215 -15.12357 -5.04288
-0.17752 -0.62774 0.14725 23.75502 62.88688 1.22637 19.49858 6.79232 0.81325 -60.78 -5.22465 -2.11994 -62.56693 16.21465 -76.4868 112.12418 123.91149 82.84944 -21.882 -62.1174 -14.72863 67.48176 91.06123 -96.74034 34.31285 1.14104 43.42337 -9.35721 -13.86042 -0.44168 -36.72265 -11.84948 -11.5535 41.99734 4.3275 24.35305 -0.49015 -29.78013 -14.69277 -4.88747
-0.17751 -0.6278 0.14707 23.97198 62.8153 1.01232 19.58881 6.86781 0.71963 -60.758 -5.27251 -2.11994 -62.56693 16.21465 -76.65174 112.27439 123.88739 82.84944 -21.88201 -62.20149 -14.64936 67.31242 90.99288 -96.76446 34.40009 1.11349 43.51781 -9.46908 -13.89263 -0.44353 -36.93062 -11.41443 -11.42077 42.11621 4.29469 24.20539 -0.49078 -29.72632 -14.2653 -4.72541
